<svg width="24" height="24" viewBox="0 0 24 24" fill="none" xmlns="http://www.w3.org/2000/svg">
<g id="Nav icon / Back-old ver.">
<g id="Union">
<mask id="path-1-outside-1_8534_24351" maskUnits="userSpaceOnUse" x="3.5" y="6.5" width="17" height="11" fill="black">
<rect fill="white" x="3.5" y="6.5" width="17" height="11"/>
<path fill-rule="evenodd" clip-rule="evenodd" d="M8.54483 7.66475C8.7645 7.44508 9.12066 7.44508 9.34033 7.66475C9.56 7.88442 9.56 8.24058 9.34033 8.46025L6.40061 11.4H19.0098C19.3205 11.4 19.5723 11.6518 19.5723 11.9625C19.5723 12.2731 19.3205 12.525 19.0098 12.525H6.44038L9.34033 15.4249C9.56 15.6446 9.56 16.0007 9.34033 16.2204C9.12066 16.4401 8.7645 16.4401 8.54483 16.2204L4.66475 12.3403C4.44508 12.1207 4.44508 11.7645 4.66475 11.5448L8.54483 7.66475Z"/>
</mask>
<path fill-rule="evenodd" clip-rule="evenodd" d="M8.54483 7.66475C8.7645 7.44508 9.12066 7.44508 9.34033 7.66475C9.56 7.88442 9.56 8.24058 9.34033 8.46025L6.40061 11.4H19.0098C19.3205 11.4 19.5723 11.6518 19.5723 11.9625C19.5723 12.2731 19.3205 12.525 19.0098 12.525H6.44038L9.34033 15.4249C9.56 15.6446 9.56 16.0007 9.34033 16.2204C9.12066 16.4401 8.7645 16.4401 8.54483 16.2204L4.66475 12.3403C4.44508 12.1207 4.44508 11.7645 4.66475 11.5448L8.54483 7.66475Z" fill="white"/>
<path d="M9.34033 7.66475L9.55246 7.45262V7.45262L9.34033 7.66475ZM8.54483 7.66475L8.75696 7.87688V7.87688L8.54483 7.66475ZM9.34033 8.46025L9.55246 8.67238V8.67238L9.34033 8.46025ZM6.40061 11.4L6.18848 11.1878C6.10268 11.2736 6.07701 11.4027 6.12345 11.5148C6.16988 11.6269 6.27927 11.7 6.40061 11.7V11.4ZM6.44038 12.525V12.225C6.31904 12.225 6.20965 12.2981 6.16322 12.4102C6.11678 12.5223 6.14245 12.6513 6.22825 12.7371L6.44038 12.525ZM9.34033 15.4249L9.12819 15.637L9.34033 15.4249ZM9.34033 16.2204L9.12819 16.0083L9.12819 16.0083L9.34033 16.2204ZM8.54483 16.2204L8.75696 16.0083L8.75696 16.0083L8.54483 16.2204ZM4.66475 12.3403L4.45262 12.5525H4.45262L4.66475 12.3403ZM4.66475 11.5448L4.87688 11.757L4.66475 11.5448ZM9.55246 7.45262C9.21563 7.11579 8.66953 7.11579 8.3327 7.45262L8.75696 7.87688C8.85948 7.77437 9.02568 7.77437 9.12819 7.87688L9.55246 7.45262ZM9.55246 8.67238C9.88928 8.33555 9.88928 7.78945 9.55246 7.45262L9.12819 7.87688C9.23071 7.9794 9.23071 8.1456 9.12819 8.24812L9.55246 8.67238ZM6.61274 11.6121L9.55246 8.67238L9.12819 8.24812L6.18848 11.1878L6.61274 11.6121ZM19.0098 11.1H6.40061V11.7H19.0098V11.1ZM19.8723 11.9625C19.8723 11.4861 19.4862 11.1 19.0098 11.1V11.7C19.1548 11.7 19.2723 11.8175 19.2723 11.9625H19.8723ZM19.0098 12.825C19.4862 12.825 19.8723 12.4388 19.8723 11.9625H19.2723C19.2723 12.1074 19.1548 12.225 19.0098 12.225V12.825ZM6.44038 12.825H19.0098V12.225H6.44038V12.825ZM9.55246 15.2128L6.65251 12.3128L6.22825 12.7371L9.12819 15.637L9.55246 15.2128ZM9.55246 16.4325C9.88929 16.0957 9.88928 15.5496 9.55246 15.2128L9.12819 15.637C9.23071 15.7396 9.23071 15.9058 9.12819 16.0083L9.55246 16.4325ZM8.3327 16.4325C8.66953 16.7694 9.21563 16.7694 9.55246 16.4325L9.12819 16.0083C9.02568 16.1108 8.85948 16.1108 8.75696 16.0083L8.3327 16.4325ZM4.45262 12.5525L8.3327 16.4325L8.75696 16.0083L4.87688 12.1282L4.45262 12.5525ZM4.45262 11.3327C4.11579 11.6695 4.11579 12.2156 4.45262 12.5525L4.87688 12.1282C4.77437 12.0257 4.77437 11.8595 4.87688 11.757L4.45262 11.3327ZM8.3327 7.45262L4.45262 11.3327L4.87688 11.757L8.75696 7.87688L8.3327 7.45262Z" fill="white" mask="url(#path-1-outside-1_8534_24351)"/>
</g>
</g>
</svg>
