<svg width="16" height="15" viewBox="0 0 16 15" fill="none" xmlns="http://www.w3.org/2000/svg">
<path d="M2.16667 1.20001H5.66667V4.24763C5.66667 5.51239 4.62444 6.53335 3.33333 6.53335C2.04222 6.53335 1 5.51239 1 4.24763V2.34287C1 1.71049 1.52111 1.20001 2.16667 1.20001Z" stroke="#222222" stroke-width="1.5" stroke-miterlimit="10"/>
<path d="M5.6665 1.20001H10.3332V4.24763C10.3332 5.51239 9.29095 6.53335 7.99984 6.53335C6.70873 6.53335 5.6665 5.51239 5.6665 4.24763V1.20001Z" stroke="#222222" stroke-width="1.5" stroke-miterlimit="10"/>
<path d="M12.6668 6.53335C13.9579 6.53335 15.0002 5.51239 15.0002 4.24763V2.34287C15.0002 1.71049 14.4791 1.20001 13.8335 1.20001H10.3335V4.24763C10.3335 5.51239 11.3757 6.53335 12.6668 6.53335Z" stroke="#222222" stroke-width="1.5" stroke-miterlimit="10"/>
<path d="M2.19995 5.86652V11.8665C2.19995 12.9711 3.09538 13.8665 4.19995 13.8665H11.8C12.9045 13.8665 13.8 12.9711 13.8 11.8665V5.86652" stroke="#222222" stroke-width="1.5"/>
<path d="M10 13.7V9.70001H6V13.7" stroke="#222222" stroke-width="1.5" stroke-linejoin="round"/>
</svg>
