<svg width="15" height="15" viewBox="0 0 15 15" fill="none" xmlns="http://www.w3.org/2000/svg">
<path fill-rule="evenodd" clip-rule="evenodd" d="M1.56895 2.22702C1.56895 2.22702 2.24253 1.469 2.66514 1.19546C3.08775 0.92192 3.54955 0.92192 3.98418 1.28189C4.41881 1.64186 5.85932 3.19942 6.1117 3.54456C6.36408 3.8897 6.36408 4.2069 6.16152 4.5719C5.95896 4.93691 5.00759 5.68697 4.82111 5.90831C4.63463 6.12964 4.63463 6.35401 4.8866 6.63682C5.08465 6.85911 5.50917 7.52005 6.50709 8.49336C6.96247 8.93751 7.86672 9.69424 8.24069 10.0001C8.61466 10.3059 8.90455 10.455 9.25376 10.1265C9.60296 9.79799 10.2729 9.01595 10.5658 8.84096C10.8588 8.66596 11.1235 8.60583 11.5672 8.9465C12.011 9.28717 13.3169 10.5931 13.6457 11.0753C13.9745 11.5575 14.1527 11.8756 13.8291 12.2639C13.5054 12.6522 13.0764 13.0814 12.6762 13.4196C12.276 13.7578 11.4211 14.3851 9.35896 13.6765C7.29686 12.968 5.65051 11.7866 4.17065 10.2275C2.69078 8.66834 1.84235 7.17583 1.23741 5.3057C0.632472 3.43558 1.56895 2.22702 1.56895 2.22702Z" stroke="#222222" stroke-width="1.5"/>
</svg>
