<svg xmlns="http://www.w3.org/2000/svg" width="16" height="17" fill="none" viewBox="0 0 16 17">
    <path fill="#626262" d="M10.571 13.11v1.023c0 .339-.287.614-.642.614H2.643c-.355 0-.643-.275-.643-.614v-9.41c0-.338.288-.613.643-.613H4.57v7.568c0 .79.673 1.432 1.5 1.432h4.5zm0-8.795v-2.66h-4.5c-.355 0-.642.275-.642.614v9.41c0 .338.287.613.642.613h7.286c.355 0 .643-.275.643-.614v-6.75h-2.786c-.353 0-.643-.276-.643-.613zm3.24-.794l-1.766-1.686c-.12-.115-.284-.18-.454-.18h-.162V4.11H14v-.155c0-.162-.068-.318-.188-.433z"/>
</svg>
