<svg width="32" height="32" viewBox="0 0 32 32" fill="none" xmlns="http://www.w3.org/2000/svg">
    <path fill-rule="evenodd" clip-rule="evenodd" d="M12.5623 18.0625C12.5623 17.8801 12.6347 17.7053 12.7636 17.5763C12.8926 17.4474 13.0674 17.375 13.2498 17.375H18.7498C18.9321 17.375 19.107 17.4474 19.2359 17.5763C19.3648 17.7053 19.4373 17.8801 19.4373 18.0625C19.4373 18.2448 19.3648 18.4197 19.2359 18.5486C19.107 18.6776 18.9321 18.75 18.7498 18.75H13.2498C13.0674 18.75 12.8926 18.6776 12.7636 18.5486C12.6347 18.4197 12.5623 18.2448 12.5623 18.0625Z" fill="black"/>
    <path fill-rule="evenodd" clip-rule="evenodd" d="M6.37476 10.5V24.25C6.37476 24.6147 6.51962 24.9644 6.77748 25.2223C7.03535 25.4801 7.38508 25.625 7.74976 25.625H24.2498C24.6144 25.625 24.9642 25.4801 25.222 25.2223C25.4799 24.9644 25.6248 24.6147 25.6248 24.25V10.5H6.37476ZM7.74976 6.37498C7.02041 6.37498 6.32094 6.66472 5.80521 7.18044C5.28949 7.69617 4.99976 8.39564 4.99976 9.12498L4.99976 24.25C4.99976 24.9793 5.28949 25.6788 5.80521 26.1945C6.32094 26.7103 7.02041 27 7.74976 27H24.2498C24.9791 27 25.6786 26.7103 26.1943 26.1945C26.71 25.6788 26.9998 24.9793 26.9998 24.25V9.12498C26.9998 8.39564 26.71 7.69617 26.1943 7.18044C25.6786 6.66472 24.9791 6.37498 24.2498 6.37498H7.74976Z" fill="black"/>
    <path fill-rule="evenodd" clip-rule="evenodd" d="M9.81226 4.99998C9.99459 4.99998 10.1695 5.07242 10.2984 5.20135C10.4273 5.33028 10.4998 5.50515 10.4998 5.68748V6.37498C10.4998 6.55732 10.4273 6.73219 10.2984 6.86112C10.1695 6.99005 9.99459 7.06248 9.81226 7.06248C9.62992 7.06248 9.45505 6.99005 9.32612 6.86112C9.19719 6.73219 9.12476 6.55732 9.12476 6.37498V5.68748C9.12476 5.50515 9.19719 5.33028 9.32612 5.20135C9.45505 5.07242 9.62992 4.99998 9.81226 4.99998V4.99998ZM22.1873 4.99998C22.3696 4.99998 22.5445 5.07242 22.6734 5.20135C22.8023 5.33028 22.8748 5.50515 22.8748 5.68748V6.37498C22.8748 6.55732 22.8023 6.73219 22.6734 6.86112C22.5445 6.99005 22.3696 7.06248 22.1873 7.06248C22.0049 7.06248 21.8301 6.99005 21.7011 6.86112C21.5722 6.73219 21.4998 6.55732 21.4998 6.37498V5.68748C21.4998 5.50515 21.5722 5.33028 21.7011 5.20135C21.8301 5.07242 22.0049 4.99998 22.1873 4.99998V4.99998Z" fill="black"/>
</svg>
