<svg width="32" height="32" viewBox="0 0 32 32" fill="none" xmlns="http://www.w3.org/2000/svg">
    <path fill-rule="evenodd" clip-rule="evenodd" d="M10.4998 5.6875C10.4998 5.50516 10.4273 5.3303 10.2984 5.20136C10.1695 5.07243 9.99459 5 9.81226 5C9.62992 5 9.45505 5.07243 9.32612 5.20136C9.19719 5.3303 9.12476 5.50516 9.12476 5.6875V6.375H7.74976C7.02041 6.375 6.32094 6.66473 5.80521 7.18046C5.28949 7.69618 4.99976 8.39565 4.99976 9.125L4.99976 10.5H26.9998V9.125C26.9998 8.39565 26.71 7.69618 26.1943 7.18046C25.6786 6.66473 24.9791 6.375 24.2498 6.375H22.8748V5.6875C22.8748 5.50516 22.8023 5.3303 22.6734 5.20136C22.5445 5.07243 22.3696 5 22.1873 5C22.0049 5 21.8301 5.07243 21.7011 5.20136C21.5722 5.3303 21.4998 5.50516 21.4998 5.6875V6.375H10.4998V5.6875ZM4.99976 11.875H26.9998V24.25C26.9998 24.9793 26.71 25.6788 26.1943 26.1945C25.6786 26.7103 24.9791 27 24.2498 27H7.74976C7.02041 27 6.32094 26.7103 5.80521 26.1945C5.28949 25.6788 4.99976 24.9793 4.99976 24.25V11.875ZM13.2498 18.75C13.0674 18.75 12.8926 18.8224 12.7636 18.9514C12.6347 19.0803 12.5623 19.2552 12.5623 19.4375C12.5623 19.6198 12.6347 19.7947 12.7636 19.9236C12.8926 20.0526 13.0674 20.125 13.2498 20.125H18.7498C18.9321 20.125 19.107 20.0526 19.2359 19.9236C19.3648 19.7947 19.4373 19.6198 19.4373 19.4375C19.4373 19.2552 19.3648 19.0803 19.2359 18.9514C19.107 18.8224 18.9321 18.75 18.7498 18.75H13.2498Z" fill="black"/>
</svg>
