<svg width="24" height="24" viewBox="0 0 24 24" fill="none" xmlns="http://www.w3.org/2000/svg">
    <path d="M18.759 8.46085L18.3757 8.7819L18.759 8.46085ZM11.554 19.6119L11.2258 19.9891L11.554 19.6119ZM11.7784 19.7854L11.5569 20.2337L11.7784 19.7854ZM12.446 19.6119L12.7742 19.9891L12.446 19.6119ZM12.2216 19.7854L12.4431 20.2337L12.2216 19.7854ZM11.8822 19.2347L6.04844 14.1583L5.392 14.9127L11.2258 19.9891L11.8822 19.2347ZM5.62427 8.78191L5.71127 8.67803L4.94465 8.03593L4.85765 8.1398L5.62427 8.78191ZM18.2887 8.67803L18.3757 8.7819L19.1423 8.1398L19.0553 8.03592L18.2887 8.67803ZM17.9516 14.1583L12.1178 19.2347L12.7742 19.9891L18.608 14.9127L17.9516 14.1583ZM18.3757 8.7819C19.7229 10.3903 19.5342 12.7811 17.9516 14.1583L18.608 14.9127C20.6018 13.1778 20.8394 10.1659 19.1423 8.1398L18.3757 8.7819ZM12.8641 9.2812C13.9369 7.199 16.7847 6.88235 18.2887 8.67803L19.0553 8.03592C17.0923 5.69222 13.3754 6.10551 11.9752 8.82318L12.8641 9.2812ZM11.1359 9.2812C11.4978 9.98366 12.5022 9.98367 12.8641 9.2812L11.9752 8.82318C11.9749 8.82366 11.9758 8.82183 11.9785 8.81905C11.9811 8.81635 11.9842 8.81393 11.9874 8.81206C11.9935 8.80851 11.9979 8.80805 12 8.80805C12.0021 8.80805 12.0065 8.80851 12.0126 8.81206C12.0158 8.81393 12.0189 8.81635 12.0215 8.81905C12.0242 8.82183 12.0251 8.82366 12.0248 8.82318L11.1359 9.2812ZM5.71127 8.67803C7.21529 6.88236 10.0631 7.199 11.1359 9.2812L12.0248 8.82318C10.6246 6.10551 6.90769 5.69222 4.94465 8.03593L5.71127 8.67803ZM6.04844 14.1583C4.46577 12.7811 4.27714 10.3903 5.62427 8.78191L4.85765 8.1398C3.16062 10.1659 3.39824 13.1778 5.392 14.9127L6.04844 14.1583ZM11.2258 19.9891C11.314 20.0659 11.4267 20.1693 11.5569 20.2337L12 19.3372C12.0153 19.3448 12.018 19.3492 11.9967 19.3323C11.9728 19.3133 11.9411 19.286 11.8822 19.2347L11.2258 19.9891ZM12.1178 19.2347C12.0589 19.286 12.0272 19.3133 12.0033 19.3323C11.982 19.3492 11.9847 19.3448 12 19.3372L12.4431 20.2337C12.5733 20.1693 12.686 20.0659 12.7742 19.9891L12.1178 19.2347ZM11.5569 20.2337C11.8362 20.3717 12.1638 20.3717 12.4431 20.2337L12 19.3372L11.5569 20.2337Z" fill="black"/>
</svg>
