<svg width="24" height="24" viewBox="0 0 24 24" fill="none" xmlns="http://www.w3.org/2000/svg">
<g id="Bottombar icon / Home / unselected">
<path id="Path 10" fill-rule="evenodd" clip-rule="evenodd" d="M12.3738 2.85167C12.208 2.68624 11.9394 2.68654 11.774 2.85235L3.68301 10.9617C3.3657 11.2798 3.1875 11.7107 3.1875 12.1599V20.7887C3.1875 21.023 3.37738 21.2128 3.61161 21.2128H8.91295C9.14717 21.2128 9.33705 21.023 9.33705 20.7887V16.7294C9.33705 16.261 9.71681 15.8812 10.1853 15.8812H14.0022C14.4707 15.8812 14.8504 16.261 14.8504 16.7294V20.7887C14.8504 21.023 15.0403 21.2128 15.2746 21.2128H20.5759C20.8101 21.2128 21 21.023 21 20.7887V12.1622C21 11.7116 20.8207 11.2795 20.5018 10.9613L12.3738 2.85167Z" stroke="white" stroke-width="1.46443" stroke-linejoin="round"/>
</g>
</svg>
