<svg xmlns="http://www.w3.org/2000/svg" width="24" height="24" viewBox="0 0 24 24"><path class="line" d="M20,1.5A2.476,2.476,0,0,1,22.5,4V20A2.476,2.476,0,0,1,20,22.5H4A2.476,2.476,0,0,1,1.5,20V4A2.476,2.476,0,0,1,4,1.5H20M20,0H4A4.012,4.012,0,0,0,0,4V20a4.012,4.012,0,0,0,4,4H20a4.012,4.012,0,0,0,4-4V4a4.012,4.012,0,0,0-4-4Z"/><path class="line" d="M9.5,18.9a.789.789,0,0,1-.8-.8V6.1a.789.789,0,0,1,.8-.8h3.3a4.269,4.269,0,0,1,4.5,4,4.269,4.269,0,0,1-4.5,4H10.3V18A.818.818,0,0,1,9.5,18.9Zm.8-7h2.5a2.807,2.807,0,0,0,3-2.5,2.745,2.745,0,0,0-3-2.5H10.3Z"/></svg>
