<svg width="18" height="18" viewBox="0 0 18 18" fill="none" xmlns="http://www.w3.org/2000/svg">
<path d="M1.5 3.75C1.5 3.33579 1.83579 3 2.25 3L14.25 3C14.6642 3 15 3.33579 15 3.75C15 4.16421 14.6642 4.5 14.25 4.5L2.25 4.5C1.83579 4.5 1.5 4.16421 1.5 3.75Z" fill="black"/>
<path d="M1.5 8.625C1.5 8.21079 1.83579 7.875 2.25 7.875L8.25 7.875C8.66421 7.875 9 8.21079 9 8.625C9 9.03921 8.66421 9.375 8.25 9.375L2.25 9.375C1.83579 9.375 1.5 9.03921 1.5 8.625Z" fill="black"/>
<path d="M1.5 13.5C1.5 13.0858 1.83579 12.75 2.25 12.75L8.25 12.75C8.66421 12.75 9 13.0858 9 13.5C9 13.9142 8.66421 14.25 8.25 14.25L2.25 14.25C1.83579 14.25 1.5 13.9142 1.5 13.5Z" fill="black"/>
<path d="M13.75 14C13.3358 14 13 13.6642 13 13.25L13 6.75C13 6.33579 13.3358 6 13.75 6C14.1642 6 14.5 6.33579 14.5 6.75L14.5 13.25C14.5 13.6642 14.1642 14 13.75 14Z" fill="black"/>
<path d="M10.75 11L13.7345 14L16.75 11" stroke="black" stroke-width="1.5" stroke-linecap="round" stroke-linejoin="round"/>
</svg>
