<svg width="13" height="17" viewBox="0 0 13 17" fill="none" xmlns="http://www.w3.org/2000/svg">
<path d="M5.71045 15.2176C1.73746 9.45793 1 8.86681 1 6.75005C1 3.85055 3.3505 1.50006 6.25 1.50006C9.1495 1.50006 11.5 3.85055 11.5 6.75005C11.5 8.86681 10.7625 9.45793 6.78955 15.2176C6.52882 15.5942 5.97115 15.5942 5.71045 15.2176ZM6.25 8.93755C7.45813 8.93755 8.4375 7.95818 8.4375 6.75005C8.4375 5.54193 7.45813 4.56256 6.25 4.56256C5.04187 4.56256 4.0625 5.54193 4.0625 6.75005C4.0625 7.95818 5.04187 8.93755 6.25 8.93755Z" stroke="#222222" stroke-width="1.5"/>
</svg>
