<svg width="32" height="32" viewBox="0 0 32 32" fill="none" xmlns="http://www.w3.org/2000/svg">
    <circle cx="16" cy="16" r="16" fill="#F1F1F1"/>
    <rect x="8.53833" y="10.1379" width="14.4529" height="12.3767" rx="0.974074" fill="#AAAAAA" stroke="#F1F1F1" stroke-width="0.6"/>
    <rect x="7.2002" y="23.0073" width="17.1292" height="0.778601" rx="0.3893" fill="#AAAAAA"/>
    <rect x="11.6525" y="9.0998" width="8.22414" height="1.99534" rx="0.997668" fill="#AAAAAA" stroke="#F1F1F1" stroke-width="0.6"/>
    <mask id="path-5-inside-1_998_5819" fill="white">
        <path d="M7.2002 12.328C7.2002 12.1385 7.35377 11.985 7.54322 11.985H11.0224V14.5331C11.0224 15.5886 10.1668 16.4442 9.11131 16.4442C8.05583 16.4442 7.2002 15.5886 7.2002 14.5331V12.328Z"/>
    </mask>
    <path d="M7.2002 12.328C7.2002 12.1385 7.35377 11.985 7.54322 11.985H11.0224V14.5331C11.0224 15.5886 10.1668 16.4442 9.11131 16.4442C8.05583 16.4442 7.2002 15.5886 7.2002 14.5331V12.328Z" fill="#AAAAAA"/>
    <path d="M11.0224 11.985H11.6224V11.385H11.0224V11.985ZM7.54322 12.585H11.0224V11.385H7.54322V12.585ZM10.4224 11.985V14.5331H11.6224V11.985H10.4224ZM7.8002 14.5331V12.328H6.6002V14.5331H7.8002ZM9.11131 15.8442C8.3872 15.8442 7.8002 15.2572 7.8002 14.5331H6.6002C6.6002 15.92 7.72446 17.0442 9.11131 17.0442V15.8442ZM10.4224 14.5331C10.4224 15.2572 9.83541 15.8442 9.11131 15.8442V17.0442C10.4982 17.0442 11.6224 15.92 11.6224 14.5331H10.4224ZM7.54322 11.385C7.0224 11.385 6.6002 11.8072 6.6002 12.328H7.8002C7.8002 12.4699 7.68514 12.585 7.54322 12.585V11.385Z" fill="#F1F1F1" mask="url(#path-5-inside-1_998_5819)"/>
    <mask id="path-7-inside-2_998_5819" fill="white">
        <path d="M10.3853 12.3279C10.3853 12.1384 10.5388 11.9849 10.7283 11.9849H14.2075V14.533C14.2075 15.5885 13.3518 16.4441 12.2964 16.4441C11.2409 16.4441 10.3853 15.5885 10.3853 14.533V12.3279Z"/>
    </mask>
    <path d="M10.3853 12.3279C10.3853 12.1384 10.5388 11.9849 10.7283 11.9849H14.2075V14.533C14.2075 15.5885 13.3518 16.4441 12.2964 16.4441C11.2409 16.4441 10.3853 15.5885 10.3853 14.533V12.3279Z" fill="#AAAAAA"/>
    <path d="M14.2075 11.9849H14.8075V11.3849H14.2075V11.9849ZM10.7283 12.5849H14.2075V11.3849H10.7283V12.5849ZM13.6075 11.9849V14.533H14.8075V11.9849H13.6075ZM10.9853 14.533V12.3279H9.78525V14.533H10.9853ZM12.2964 15.8441C11.5723 15.8441 10.9853 15.2571 10.9853 14.533H9.78525C9.78525 15.9199 10.9095 17.0441 12.2964 17.0441V15.8441ZM13.6075 14.533C13.6075 15.2571 13.0205 15.8441 12.2964 15.8441V17.0441C13.6832 17.0441 14.8075 15.9199 14.8075 14.533H13.6075ZM10.7283 11.3849C10.2075 11.3849 9.78525 11.8071 9.78525 12.3279H10.9853C10.9853 12.4698 10.8702 12.5849 10.7283 12.5849V11.3849Z" fill="#F1F1F1" mask="url(#path-7-inside-2_998_5819)"/>
    <mask id="path-9-inside-3_998_5819" fill="white">
        <path d="M13.5708 12.3279C13.5708 12.1384 13.7244 11.9849 13.9138 11.9849H18.0301V14.2145C18.0301 15.4459 17.0318 16.4441 15.8004 16.4441C14.569 16.4441 13.5708 15.4459 13.5708 14.2145V12.3279Z"/>
    </mask>
    <path d="M13.5708 12.3279C13.5708 12.1384 13.7244 11.9849 13.9138 11.9849H18.0301V14.2145C18.0301 15.4459 17.0318 16.4441 15.8004 16.4441C14.569 16.4441 13.5708 15.4459 13.5708 14.2145V12.3279Z" fill="#AAAAAA"/>
    <path d="M18.0301 11.9849H18.6301V11.3849H18.0301V11.9849ZM13.9138 12.5849H18.0301V11.3849H13.9138V12.5849ZM17.4301 11.9849V14.2145H18.6301V11.9849H17.4301ZM14.1708 14.2145V12.3279H12.9708V14.2145H14.1708ZM15.8004 15.8441C14.9004 15.8441 14.1708 15.1145 14.1708 14.2145H12.9708C12.9708 15.7773 14.2377 17.0441 15.8004 17.0441V15.8441ZM17.4301 14.2145C17.4301 15.1145 16.7005 15.8441 15.8004 15.8441V17.0441C17.3632 17.0441 18.6301 15.7773 18.6301 14.2145H17.4301ZM13.9138 11.3849C13.393 11.3849 12.9708 11.8071 12.9708 12.3279H14.1708C14.1708 12.4698 14.0557 12.5849 13.9138 12.5849V11.3849Z" fill="#F1F1F1" mask="url(#path-9-inside-3_998_5819)"/>
    <mask id="path-11-inside-4_998_5819" fill="white">
        <path d="M17.3926 12.3279C17.3926 12.1384 17.5462 11.9849 17.7356 11.9849H21.2148V14.533C21.2148 15.5885 20.3592 16.4441 19.3037 16.4441C18.2482 16.4441 17.3926 15.5885 17.3926 14.533V12.3279Z"/>
    </mask>
    <path d="M17.3926 12.3279C17.3926 12.1384 17.5462 11.9849 17.7356 11.9849H21.2148V14.533C21.2148 15.5885 20.3592 16.4441 19.3037 16.4441C18.2482 16.4441 17.3926 15.5885 17.3926 14.533V12.3279Z" fill="#AAAAAA"/>
    <path d="M21.2148 11.9849H21.8148V11.3849H21.2148V11.9849ZM17.7356 12.5849H21.2148V11.3849H17.7356V12.5849ZM20.6148 11.9849V14.533H21.8148V11.9849H20.6148ZM17.9926 14.533V12.3279H16.7926V14.533H17.9926ZM19.3037 15.8441C18.5796 15.8441 17.9926 15.2571 17.9926 14.533H16.7926C16.7926 15.9199 17.9168 17.0441 19.3037 17.0441V15.8441ZM20.6148 14.533C20.6148 15.2571 20.0278 15.8441 19.3037 15.8441V17.0441C20.6905 17.0441 21.8148 15.9199 21.8148 14.533H20.6148ZM17.7356 11.3849C17.2148 11.3849 16.7926 11.8071 16.7926 12.3279H17.9926C17.9926 12.4698 17.8775 12.5849 17.7356 12.5849V11.3849Z" fill="#F1F1F1" mask="url(#path-11-inside-4_998_5819)"/>
    <mask id="path-13-inside-5_998_5819" fill="white">
        <path d="M24.4004 12.3279C24.4004 12.1384 24.2468 11.9849 24.0574 11.9849H20.5782V14.533C20.5782 15.5885 21.4338 16.4441 22.4893 16.4441C23.5448 16.4441 24.4004 15.5885 24.4004 14.533V12.3279Z"/>
    </mask>
    <path d="M24.4004 12.3279C24.4004 12.1384 24.2468 11.9849 24.0574 11.9849H20.5782V14.533C20.5782 15.5885 21.4338 16.4441 22.4893 16.4441C23.5448 16.4441 24.4004 15.5885 24.4004 14.533V12.3279Z" fill="#AAAAAA"/>
    <path d="M20.5782 11.9849H19.9782V11.3849H20.5782V11.9849ZM24.0574 12.5849H20.5782V11.3849H24.0574V12.5849ZM21.1782 11.9849V14.533H19.9782V11.9849H21.1782ZM23.8004 14.533V12.3279H25.0004V14.533H23.8004ZM22.4893 15.8441C23.2134 15.8441 23.8004 15.2571 23.8004 14.533H25.0004C25.0004 15.9199 23.8761 17.0441 22.4893 17.0441V15.8441ZM21.1782 14.533C21.1782 15.2571 21.7652 15.8441 22.4893 15.8441V17.0441C21.1024 17.0441 19.9782 15.9199 19.9782 14.533H21.1782ZM24.0574 11.3849C24.5782 11.3849 25.0004 11.8071 25.0004 12.3279H23.8004C23.8004 12.4698 23.9154 12.5849 24.0574 12.5849V11.3849Z" fill="#F1F1F1" mask="url(#path-13-inside-5_998_5819)"/>
    <rect x="15.8239" y="17.4235" width="5.59177" height="2.47737" rx="0.318519" fill="#AAAAAA" stroke="#F1F1F1" stroke-width="0.637037"/>
    <rect x="12.9102" y="19.7002" width="0.519067" height="1.03813" rx="0.259534" fill="#AAAAAA"/>
    <rect x="8.53833" y="10.1379" width="14.4529" height="12.3767" rx="0.974074" fill="#AAAAAA" stroke="#F1F1F1" stroke-width="0.6"/>
    <rect x="7.2002" y="23.0073" width="17.1292" height="0.778601" rx="0.3893" fill="#AAAAAA"/>
    <rect x="11.6525" y="9.0998" width="8.22414" height="1.99534" rx="0.997668" fill="#AAAAAA" stroke="#F1F1F1" stroke-width="0.6"/>
    <mask id="path-20-inside-6_998_5819" fill="white">
        <path d="M7.2002 12.328C7.2002 12.1385 7.35377 11.985 7.54322 11.985H11.0224V14.5331C11.0224 15.5886 10.1668 16.4442 9.11131 16.4442C8.05583 16.4442 7.2002 15.5886 7.2002 14.5331V12.328Z"/>
    </mask>
    <path d="M7.2002 12.328C7.2002 12.1385 7.35377 11.985 7.54322 11.985H11.0224V14.5331C11.0224 15.5886 10.1668 16.4442 9.11131 16.4442C8.05583 16.4442 7.2002 15.5886 7.2002 14.5331V12.328Z" fill="#AAAAAA"/>
    <path d="M11.0224 11.985H11.6224V11.385H11.0224V11.985ZM7.54322 12.585H11.0224V11.385H7.54322V12.585ZM10.4224 11.985V14.5331H11.6224V11.985H10.4224ZM7.8002 14.5331V12.328H6.6002V14.5331H7.8002ZM9.11131 15.8442C8.3872 15.8442 7.8002 15.2572 7.8002 14.5331H6.6002C6.6002 15.92 7.72446 17.0442 9.11131 17.0442V15.8442ZM10.4224 14.5331C10.4224 15.2572 9.83541 15.8442 9.11131 15.8442V17.0442C10.4982 17.0442 11.6224 15.92 11.6224 14.5331H10.4224ZM7.54322 11.385C7.0224 11.385 6.6002 11.8072 6.6002 12.328H7.8002C7.8002 12.4699 7.68514 12.585 7.54322 12.585V11.385Z" fill="#F1F1F1" mask="url(#path-20-inside-6_998_5819)"/>
    <mask id="path-22-inside-7_998_5819" fill="white">
        <path d="M10.3853 12.3279C10.3853 12.1384 10.5388 11.9849 10.7283 11.9849H14.2075V14.533C14.2075 15.5885 13.3518 16.4441 12.2964 16.4441C11.2409 16.4441 10.3853 15.5885 10.3853 14.533V12.3279Z"/>
    </mask>
    <path d="M10.3853 12.3279C10.3853 12.1384 10.5388 11.9849 10.7283 11.9849H14.2075V14.533C14.2075 15.5885 13.3518 16.4441 12.2964 16.4441C11.2409 16.4441 10.3853 15.5885 10.3853 14.533V12.3279Z" fill="#AAAAAA"/>
    <path d="M14.2075 11.9849H14.8075V11.3849H14.2075V11.9849ZM10.7283 12.5849H14.2075V11.3849H10.7283V12.5849ZM13.6075 11.9849V14.533H14.8075V11.9849H13.6075ZM10.9853 14.533V12.3279H9.78525V14.533H10.9853ZM12.2964 15.8441C11.5723 15.8441 10.9853 15.2571 10.9853 14.533H9.78525C9.78525 15.9199 10.9095 17.0441 12.2964 17.0441V15.8441ZM13.6075 14.533C13.6075 15.2571 13.0205 15.8441 12.2964 15.8441V17.0441C13.6832 17.0441 14.8075 15.9199 14.8075 14.533H13.6075ZM10.7283 11.3849C10.2075 11.3849 9.78525 11.8071 9.78525 12.3279H10.9853C10.9853 12.4698 10.8702 12.5849 10.7283 12.5849V11.3849Z" fill="#F1F1F1" mask="url(#path-22-inside-7_998_5819)"/>
    <mask id="path-24-inside-8_998_5819" fill="white">
        <path d="M13.5708 12.3279C13.5708 12.1384 13.7244 11.9849 13.9138 11.9849H18.0301V14.2145C18.0301 15.4459 17.0318 16.4441 15.8004 16.4441C14.569 16.4441 13.5708 15.4459 13.5708 14.2145V12.3279Z"/>
    </mask>
    <path d="M13.5708 12.3279C13.5708 12.1384 13.7244 11.9849 13.9138 11.9849H18.0301V14.2145C18.0301 15.4459 17.0318 16.4441 15.8004 16.4441C14.569 16.4441 13.5708 15.4459 13.5708 14.2145V12.3279Z" fill="#AAAAAA"/>
    <path d="M18.0301 11.9849H18.6301V11.3849H18.0301V11.9849ZM13.9138 12.5849H18.0301V11.3849H13.9138V12.5849ZM17.4301 11.9849V14.2145H18.6301V11.9849H17.4301ZM14.1708 14.2145V12.3279H12.9708V14.2145H14.1708ZM15.8004 15.8441C14.9004 15.8441 14.1708 15.1145 14.1708 14.2145H12.9708C12.9708 15.7773 14.2377 17.0441 15.8004 17.0441V15.8441ZM17.4301 14.2145C17.4301 15.1145 16.7005 15.8441 15.8004 15.8441V17.0441C17.3632 17.0441 18.6301 15.7773 18.6301 14.2145H17.4301ZM13.9138 11.3849C13.393 11.3849 12.9708 11.8071 12.9708 12.3279H14.1708C14.1708 12.4698 14.0557 12.5849 13.9138 12.5849V11.3849Z" fill="#F1F1F1" mask="url(#path-24-inside-8_998_5819)"/>
    <mask id="path-26-inside-9_998_5819" fill="white">
        <path d="M17.3926 12.3279C17.3926 12.1384 17.5462 11.9849 17.7356 11.9849H21.2148V14.533C21.2148 15.5885 20.3592 16.4441 19.3037 16.4441C18.2482 16.4441 17.3926 15.5885 17.3926 14.533V12.3279Z"/>
    </mask>
    <path d="M17.3926 12.3279C17.3926 12.1384 17.5462 11.9849 17.7356 11.9849H21.2148V14.533C21.2148 15.5885 20.3592 16.4441 19.3037 16.4441C18.2482 16.4441 17.3926 15.5885 17.3926 14.533V12.3279Z" fill="#AAAAAA"/>
    <path d="M21.2148 11.9849H21.8148V11.3849H21.2148V11.9849ZM17.7356 12.5849H21.2148V11.3849H17.7356V12.5849ZM20.6148 11.9849V14.533H21.8148V11.9849H20.6148ZM17.9926 14.533V12.3279H16.7926V14.533H17.9926ZM19.3037 15.8441C18.5796 15.8441 17.9926 15.2571 17.9926 14.533H16.7926C16.7926 15.9199 17.9168 17.0441 19.3037 17.0441V15.8441ZM20.6148 14.533C20.6148 15.2571 20.0278 15.8441 19.3037 15.8441V17.0441C20.6905 17.0441 21.8148 15.9199 21.8148 14.533H20.6148ZM17.7356 11.3849C17.2148 11.3849 16.7926 11.8071 16.7926 12.3279H17.9926C17.9926 12.4698 17.8775 12.5849 17.7356 12.5849V11.3849Z" fill="#F1F1F1" mask="url(#path-26-inside-9_998_5819)"/>
    <mask id="path-28-inside-10_998_5819" fill="white">
        <path d="M24.4004 12.3279C24.4004 12.1384 24.2468 11.9849 24.0574 11.9849H20.5782V14.533C20.5782 15.5885 21.4338 16.4441 22.4893 16.4441C23.5448 16.4441 24.4004 15.5885 24.4004 14.533V12.3279Z"/>
    </mask>
    <path d="M24.4004 12.3279C24.4004 12.1384 24.2468 11.9849 24.0574 11.9849H20.5782V14.533C20.5782 15.5885 21.4338 16.4441 22.4893 16.4441C23.5448 16.4441 24.4004 15.5885 24.4004 14.533V12.3279Z" fill="#AAAAAA"/>
    <path d="M20.5782 11.9849H19.9782V11.3849H20.5782V11.9849ZM24.0574 12.5849H20.5782V11.3849H24.0574V12.5849ZM21.1782 11.9849V14.533H19.9782V11.9849H21.1782ZM23.8004 14.533V12.3279H25.0004V14.533H23.8004ZM22.4893 15.8441C23.2134 15.8441 23.8004 15.2571 23.8004 14.533H25.0004C25.0004 15.9199 23.8761 17.0441 22.4893 17.0441V15.8441ZM21.1782 14.533C21.1782 15.2571 21.7652 15.8441 22.4893 15.8441V17.0441C21.1024 17.0441 19.9782 15.9199 19.9782 14.533H21.1782ZM24.0574 11.3849C24.5782 11.3849 25.0004 11.8071 25.0004 12.3279H23.8004C23.8004 12.4698 23.9154 12.5849 24.0574 12.5849V11.3849Z" fill="#F1F1F1" mask="url(#path-28-inside-10_998_5819)"/>
    <rect x="15.8239" y="17.4235" width="5.59177" height="2.47737" rx="0.318519" fill="#AAAAAA" stroke="#F1F1F1" stroke-width="0.637037"/>
    <rect x="12.9102" y="19.7002" width="0.519067" height="1.03813" rx="0.259534" fill="#AAAAAA"/>
</svg>
