<svg width="60" height="60" viewBox="0 0 60 60" fill="none" xmlns="http://www.w3.org/2000/svg">
<rect width="60" height="60" rx="30" fill="#FFECE6"/>
<path d="M20.4451 18.6272C20.3229 18.6796 20.2182 18.7495 20.1309 18.8369C20.0436 18.9243 20 19.0379 20 19.1777C20 19.3175 20.0262 19.4311 20.0785 19.5184C20.1309 19.6058 20.2269 19.6845 20.3665 19.7544L27.6444 23.0573C27.784 23.1447 27.88 23.2495 27.9324 23.3718L31.231 30.633C31.2833 30.7728 31.3619 30.8689 31.4666 30.9214C31.5713 30.9738 31.6935 31 31.8331 31C31.9727 31 32.0774 30.9651 32.1473 30.8951C32.2171 30.8252 32.2956 30.7204 32.3829 30.5806L37.9591 13.8039C38.0464 13.5592 37.994 13.3495 37.802 13.1748C37.61 13 37.4006 12.9563 37.1737 13.0437L20.4451 18.6272Z" fill="#FF3D00"/>
<path d="M21.8049 38.028V48.996H23.0049V38.028H21.8049ZM20.1489 42.384V43.404H22.1289V42.384H20.1489ZM19.3329 38.244V48.456H20.5089V38.244H19.3329ZM14.1609 39.3V45.636H15.4209V39.3H14.1609ZM14.1609 45.144V46.224H14.8809C16.0329 46.224 17.2929 46.176 18.7569 45.9L18.6249 44.808C17.2209 45.084 15.9849 45.144 14.8809 45.144H14.1609ZM28.7685 39.168V39.576C28.7685 40.872 27.2085 42.12 25.0605 42.408L25.5405 43.392C28.0005 43.02 29.8605 41.52 29.8605 39.576V39.168H28.7685ZM29.1165 39.168V39.576C29.1165 41.52 30.9645 43.02 33.4365 43.392L33.9045 42.408C31.7685 42.12 30.1965 40.872 30.1965 39.576V39.168H29.1165ZM28.8285 44.892V48.996H30.0765V44.892H28.8285ZM24.5325 44.184V45.204H34.4445V44.184H24.5325ZM25.4325 38.652V39.66H33.5085V38.652H25.4325ZM40.676 39.96V40.968H43.676V39.96H40.676ZM40.676 42.324V43.332H43.712V42.324H40.676ZM43.208 38.04V46.14H44.468V38.04H43.208ZM37.328 47.76V48.78H44.72V47.76H37.328ZM37.328 45.348V48.312H38.588V45.348H37.328ZM35.876 38.76V44.34H40.94V38.76H39.704V40.572H37.124V38.76H35.876ZM37.124 41.544H39.704V43.332H37.124V41.544Z" fill="#FF3D00"/>
</svg>
