<svg
                      xmlns="http://www.w3.org/2000/svg" width="24" height="24" viewBox="0 0 24 24" fill="none">
                      <path
                        d="M6 8C6 9.10457 6.89543 10 8 10C9.10457 10 10 9.10457 10 8M6 8C6 6.89543 6.89543 6 8 6C9.10457 6 10 6.89543 10 8M6 8H3M10 8H21M14 15C14 16.1046 14.8954 17 16 17C17.1046 17 18 16.1046 18 15M14 15C14 13.8954 14.8954 13 16 13C17.1046 13 18 13.8954 18 15M14 15H3M18 15H21"
                        stroke="currentColor" stroke-width="1.5"></path>
                    </svg>