<svg width="36" height="36" viewBox="0 0 36 36" fill="none" xmlns="http://www.w3.org/2000/svg">
<path fill-rule="evenodd" clip-rule="evenodd" d="M18.1452 28.5365C18.0549 28.4866 17.9452 28.4866 17.8549 28.5365L8.72488 33.5835C8.50571 33.7046 8.24334 33.5198 8.28365 33.2726L10.0345 22.5392C10.0498 22.4452 10.0196 22.3496 9.95312 22.2814L2.5254 14.6686C2.35488 14.4938 2.45344 14.1994 2.69482 14.1625L12.9339 12.5981C13.0328 12.583 13.1176 12.5196 13.1601 12.429L17.7285 2.69623C17.8364 2.46619 18.1636 2.46619 18.2716 2.69623L22.8399 12.429C22.8824 12.5196 22.9673 12.583 23.0662 12.5981L33.3052 14.1625C33.5466 14.1994 33.6452 14.4938 33.4747 14.6686L26.0469 22.2814C25.9804 22.3496 25.9503 22.4452 25.9656 22.5392L27.7164 33.2726C27.7567 33.5198 27.4944 33.7046 27.2752 33.5835L18.1452 28.5365Z" fill="#FFC01D"/>
</svg>
