<svg width="36" height="36" viewBox="0 0 36 36" fill="none" xmlns="http://www.w3.org/2000/svg">
<path d="M8.4743 33.9309L17.9999 28.6659V1.79999L13.0553 12.3354C13.0166 12.4164 12.9401 12.474 12.8519 12.4875L2.3192 14.0967C2.1023 14.13 2.0132 14.3937 2.1662 14.5521L9.8045 22.3803C9.8648 22.4415 9.8918 22.527 9.8783 22.6125L8.0774 33.651C8.0414 33.8733 8.2772 34.0398 8.4743 33.9309Z" fill="#FFC01D"/>
<path d="M27.5257 33.9309L18.0001 28.6659V1.79999L22.9447 12.3354C22.9834 12.4164 23.0599 12.474 23.1481 12.4875L33.6808 14.0967C33.8977 14.13 33.9868 14.3937 33.8338 14.5521L26.1955 22.3803C26.1352 22.4415 26.1082 22.527 26.1217 22.6125L27.9226 33.651C27.9586 33.8733 27.7228 34.0398 27.5257 33.9309Z" fill="#C4C4C4"/>
</svg>
