<svg width="18" height="18" viewBox="0 0 18 18" fill="none" xmlns="http://www.w3.org/2000/svg">
<rect x="13.848" y="4.32104" width="1.1512" height="13.8144" rx="0.575602" transform="rotate(45 13.848 4.32104)" fill="#666666"/>
<path d="M5.53079 5.91672C4.21846 7.22905 4.21846 9.35677 5.53079 10.6691L10.2832 5.91672C8.97084 4.60438 6.84313 4.60438 5.53079 5.91672Z" fill="#666666"/>
<rect x="3.35461" y="4.4928" width="0.942808" height="1.88562" transform="rotate(-45 3.35461 4.4928)" fill="#666666"/>
<rect x="1.68787" y="8.82629" width="0.942808" height="1.88562" transform="rotate(-90 1.68787 8.82629)" fill="#666666"/>
<rect width="0.942808" height="1.88562" transform="matrix(-1 2.18557e-08 2.18557e-08 1 8.35449 2.15955)" fill="#666666"/>
<rect x="11.4877" y="3.2926" width="0.942808" height="1.88562" transform="rotate(45 11.4877 3.2926)" fill="#666666"/>
<rect x="4.15466" y="10.6262" width="0.942808" height="1.88562" transform="rotate(45 4.15466 10.6262)" fill="#666666"/>
<path d="M13.3727 15.1067C15.3759 14.1491 16.2231 11.7477 15.2649 9.74289C14.8215 8.81535 14.0694 8.13523 13.1907 7.76695C14.1788 10.672 12.0713 12.3842 11.1645 12.8176C10.0881 13.3321 8.89685 13.3251 7.87634 12.8974C7.91624 13.0026 7.96086 13.1071 8.01028 13.2105C8.96854 15.2153 11.3694 16.0642 13.3727 15.1067Z" fill="#666666"/>
</svg>
