<svg xmlns="http://www.w3.org/2000/svg" width="18" height="18" fill="none" viewBox="0 0 18 18">
    <path fill="#666" d="M5.57 4.62L4.392 3.445l-.923.927L4.64 5.548l.929-.927zM3.763 8.344H1.8v1.315h1.963V8.343zM9.654 1.8H8.345v1.94h1.31V1.8zm4.877 2.571l-.923-.927-1.172 1.177.923.927 1.172-1.177zm-2.101 9.008l1.171 1.184.923-.927-1.178-1.177-.916.92zm1.806-5.036v1.315H16.2V8.343h-1.964zM9 5.055C6.833 5.055 5.073 6.824 5.073 9c0 2.177 1.76 3.945 3.927 3.945 2.166 0 3.927-1.768 3.927-3.945 0-2.176-1.76-3.945-3.927-3.945zM8.345 16.2h1.31v-1.94h-1.31v1.94zM3.47 13.63l.923.926 1.171-1.183-.922-.928-1.172 1.184z"/>
</svg>
